HIERARCHY
ROOT Hips
{
	OFFSET -3.958830 18.904000 13.208200
	CHANNELS 6 Xposition Yposition Zposition Zrotation Yrotation Xrotation 
	JOINT LHipJoint
	{
		OFFSET 0.000000 0.000000 0.000000
		CHANNELS 3 Zrotation Yrotation Xrotation
		JOINT LeftUpLeg
		{
			OFFSET 1.800000 -1.400000 0.085000
			CHANNELS 3 Zrotation Yrotation Xrotation
			JOINT LeftLeg
			{
				OFFSET 2.215000 -6.000000 0.000000
				CHANNELS 3 Zrotation Yrotation Xrotation
				JOINT LeftFoot
				{
					OFFSET 2.500000 -6.900000 0.000000
					CHANNELS 3 Zrotation Yrotation Xrotation
					JOINT LeftToeBase
					{
						OFFSET 0.200000 -0.500000 1.950000
						CHANNELS 3 Zrotation Yrotation Xrotation
						End Site
						{
							OFFSET 0.000000 0.000000 0.000000
						}
					}
				}
			}
		}
	}
	JOINT RHipJoint
	{
		OFFSET 0.000000 0.000000 0.000000
		CHANNELS 3 Zrotation Yrotation Xrotation
		JOINT RightUpLeg
		{
			OFFSET -1.800000 -1.400000 0.085000
			CHANNELS 3 Zrotation Yrotation Xrotation
			JOINT RightLeg
			{
				OFFSET -2.215000 -6.000000 0.000000
				CHANNELS 3 Zrotation Yrotation Xrotation
				JOINT RightFoot
				{
					OFFSET -2.500000 -6.900000 0.000000
					CHANNELS 3 Zrotation Yrotation Xrotation
					JOINT RightToeBase
					{
						OFFSET -0.200000 -0.500000 1.950000
						CHANNELS 3 Zrotation Yrotation Xrotation
						End Site
						{
							OFFSET 0.000000 0.000000 0.000000
						}
					}
				}
			}
		}
	}
	JOINT LowerBack
	{
		OFFSET 0.000000 0.000000 0.000000
		CHANNELS 3 Zrotation Yrotation Xrotation
		JOINT Spine
		{
			OFFSET -0.087000 1.940000 -0.288900
			CHANNELS 3 Zrotation Yrotation Xrotation
			JOINT Spine1
			{
				OFFSET 0.000000 1.950000 0.060000
				CHANNELS 3 Zrotation Yrotation Xrotation
				JOINT Neck
				{
					OFFSET 0.000000 0.000000 0.000000
					CHANNELS 3 Zrotation Yrotation Xrotation
					JOINT Neck1
					{
						OFFSET 0.000000 1.600000 0.340000
						CHANNELS 3 Zrotation Yrotation Xrotation
						JOINT Head
						{
							OFFSET 0.000000 1.667000 -0.240000
							CHANNELS 3 Zrotation Yrotation Xrotation
							End Site
							{
								OFFSET 0.000000 0.000000 0.000000
							}
						}
					}
				}
				JOINT LeftShoulder
				{
					OFFSET 0.000000 0.000000 0.000000
					CHANNELS 3 Zrotation Yrotation Xrotation
					JOINT LeftArm
					{
						OFFSET 2.700000 1.550000 -0.730000
						CHANNELS 3 Zrotation Yrotation Xrotation
						JOINT LeftForeArm
						{
							OFFSET 5.450000 0.000000 0.000000
							CHANNELS 3 Zrotation Yrotation Xrotation
							JOINT LeftHand
							{
								OFFSET 3.450000 0.000000 0.000000
								CHANNELS 3 Zrotation Yrotation Xrotation
								JOINT LeftHandIndex1
								{
									OFFSET 0.750000 0.000000 0.000000
									CHANNELS 3 Zrotation Yrotation Xrotation
									End Site
									{
										OFFSET 0.000000 0.000000 0.000000
									}
								}
							}
						}
					}
				}
				JOINT RightShoulder
				{
					OFFSET 0.000000 0.000000 0.000000
					CHANNELS 3 Zrotation Yrotation Xrotation
					JOINT RightArm
					{
						OFFSET -2.700000 1.550000 -0.730000
						CHANNELS 3 Zrotation Yrotation Xrotation
						JOINT RightForeArm
						{
							OFFSET -5.450000 0.000000 0.000000
							CHANNELS 3 Zrotation Yrotation Xrotation
							JOINT RightHand
							{
								OFFSET -3.450000 0.000000 0.000000
								CHANNELS 3 Zrotation Yrotation Xrotation
								JOINT RightHandIndex1
								{
									OFFSET -0.750000 0.000000 0.000000
									CHANNELS 3 Zrotation Yrotation Xrotation
									End Site
									{
										OFFSET 0.000000 0.000000 0.000000
									}
								}
							}
						}
					}
				}
			}
		}
	}
}
MOTION
Frames: 12
Frame Time: 0.016667
0.060130 17.256490 -2.259380 -7.742122 -30.359047 13.417318 -16.236855 10.745727 6.598551 32.835402 -2.333476 -25.919780 -48.621539 12.843189 6.012936 0.760723 9.811752 1.164493 0.518010 0.151330 0.462690 17.837213 -7.586719 2.270828 -16.682054 4.255950 -30.388591 16.389162 -7.296038 17.354845 -0.145478 -3.646712 3.081005 0.176000 0.282160 0.194290 -2.106606 -4.545739 -8.745980 0.799515 -4.329777 10.354167 4.035663 -4.527273 6.248417 -0.763626 -7.867848 -7.801824 -18.985105 17.060417 32.915655 -1.430860 11.931620 -6.304290 -13.718193 0.618244 0.890185 -54.989198 -3.863257 -2.989774 -30.944003 -2.165304 -2.020944 -3.835409 3.075144 0.516850 0.172250 -0.069870 0.220290 15.947352 4.563009 4.089100 42.878719 -3.412566 -11.758064 49.160850 39.007830 11.436126 2.049233 -1.782069 -0.260450 0.216080 -0.111210 -0.256090 
0.088160 17.241030 -2.242730 -7.576370 -30.109164 13.055937 -16.262966 10.866735 6.502306 32.291324 -2.363623 -26.227372 -48.291723 13.563808 7.249224 0.775607 9.878350 1.159974 0.518860 0.164770 0.428260 17.806130 -7.589178 2.240950 -16.948896 4.096993 -30.275917 16.186891 -7.363063 17.688149 -0.128212 -3.713672 3.066079 0.194940 0.332230 0.192290 -1.984485 -4.712089 -8.650655 -0.044898 -4.222419 9.537352 5.602432 -4.595519 6.280610 -1.324974 -8.225244 -7.794243 -19.766000 17.395608 31.868115 -0.573970 11.504270 -5.176220 -13.414576 0.563953 1.036259 -55.772850 -4.273533 -2.426926 -31.871844 -1.140955 -2.208165 -3.853107 3.115932 0.471340 0.202100 -0.106090 0.245170 16.864305 5.020731 4.181629 39.670401 -3.655546 -10.924681 51.517909 39.388675 12.466426 2.035029 -1.841269 -0.261270 0.227960 -0.111560 -0.227840 
0.115180 17.234710 -2.230390 -7.322012 -30.003664 12.487032 -16.276097 11.051704 6.425579 31.566837 -2.455414 -26.495600 -47.646474 14.153644 8.492395 0.781080 9.893857 1.162469 0.516430 0.177640 0.398340 17.770854 -7.648929 2.175324 -16.585870 3.974046 -29.897106 15.107023 -7.093397 17.815759 -0.094861 -3.600759 3.121945 0.207800 0.358670 0.172920 -1.852477 -4.906259 -8.581220 -0.942191 -4.187893 9.364171 7.001437 -4.668431 6.060450 -1.788142 -8.765306 -8.022872 -21.187887 17.951553 31.158076 0.303220 11.110290 -4.608740 -13.313077 0.346491 1.343330 -56.189499 -4.038469 -2.419694 -33.162299 -0.946693 -2.323517 -3.840283 3.136485 0.448110 0.205850 -0.125440 0.261520 17.830960 5.777283 4.411368 36.821285 -3.982448 -10.389523 53.500830 39.937472 13.453037 2.031689 -1.870718 -0.265360 0.248490 -0.112710 -0.205950 
0.141230 17.235910 -2.222420 -7.000637 -29.875887 11.979005 -16.277440 11.180391 6.364837 30.881253 -2.516302 -26.729722 -47.233834 14.610868 9.463035 0.793023 9.893831 1.162214 0.530230 0.203710 0.392710 17.749960 -7.722258 2.119092 -16.248131 3.880837 -29.569411 14.069354 -6.803551 17.822410 -0.076255 -3.480205 3.175876 0.218030 0.360190 0.169290 -1.767497 -4.985674 -8.526136 -1.733236 -4.015856 9.274351 7.749614 -4.590046 5.989393 -2.032144 -8.945524 -8.113062 -21.709192 18.210324 31.028942 0.745220 10.990140 -4.564090 -13.176398 0.196560 1.531107 -56.066833 -3.930428 -2.440155 -34.669365 -0.872237 -2.427242 -3.822002 3.164200 0.435360 0.203280 -0.124000 0.273280 18.259987 6.200295 4.454248 35.667699 -3.756320 -10.031237 53.867643 39.689622 13.546136 2.034860 -1.881092 -0.252970 0.250900 -0.123540 -0.193010 
0.171560 17.246310 -2.219340 -6.632272 -29.402639 11.467284 -16.259501 11.309218 6.301073 30.080123 -2.723741 -27.341089 -46.533895 15.215774 10.975187 0.771152 9.934077 1.143952 0.524240 0.195450 0.390350 17.743917 -7.822066 2.066816 -15.888524 3.753310 -29.213711 12.943917 -6.510709 17.767278 -0.056630 -3.352920 3.221914 0.216530 0.366710 0.174080 -1.724828 -5.027101 -8.477478 -2.227245 -3.961690 9.466756 7.912577 -4.561237 5.893263 -2.137657 -9.052172 -8.106185 -22.016483 18.234995 31.059682 0.561440 10.939140 -4.879630 -13.232662 0.040066 1.586800 -55.512668 -3.895100 -2.510533 -36.374803 -0.973086 -2.539041 -3.823161 3.170468 0.443900 0.206300 -0.122700 0.268550 18.555078 6.508877 4.365117 35.513533 -3.081131 -9.750588 53.296399 38.495438 12.896452 2.036461 -1.855764 -0.258990 0.260330 -0.111920 -0.195260 
0.207010 17.261200 -2.217060 -6.350153 -28.886530 11.143760 -16.232206 11.403063 6.231824 29.236281 -2.968168 -27.911016 -45.683488 15.597424 12.229673 0.740896 9.931940 1.139475 0.520270 0.185910 0.394990 17.748871 -7.928875 2.025010 -15.486679 3.632028 -28.926639 11.849702 -6.181454 17.476753 -0.036411 -3.212953 3.278156 0.211910 0.368270 0.181620 -1.723150 -4.996729 -8.419164 -2.459577 -3.951022 9.472004 7.634578 -4.562978 6.082435 -2.068189 -8.918256 -8.045910 -21.717976 18.103749 31.572633 0.119390 11.065310 -5.041630 -13.123682 -0.094247 1.596505 -55.066695 -3.973320 -2.599411 -37.688239 -1.164148 -2.590726 -3.829154 3.172571 0.452230 0.213830 -0.121080 0.263330 18.280491 6.585905 4.200369 36.222374 -2.162045 -9.560443 52.619026 37.328262 12.209295 2.038669 -1.830486 -0.262760 0.262500 -0.104260 -0.203370 
0.246150 17.282060 -2.218450 -6.343738 -28.450594 10.822109 -16.197724 11.483966 6.189730 28.724562 -3.016313 -28.173646 -44.932241 15.918379 13.250018 0.723655 9.912018 1.119984 0.553630 0.234460 0.412610 17.761983 -8.045238 1.973252 -14.745472 3.588967 -28.358029 10.606766 -5.719998 16.963340 -0.026887 -3.017501 3.348150 0.232050 0.336800 0.187000 -1.752084 -4.931770 -8.381718 -2.266017 -3.856151 9.866640 7.406992 -4.432186 6.163390 -2.133577 -8.992748 -7.941210 -22.096792 18.155646 32.198569 0.133740 10.895600 -5.845480 -13.421476 -0.208749 1.520186 -54.628128 -4.167213 -2.638261 -39.016924 -1.323384 -2.627275 -3.807994 3.196123 0.456350 0.196960 -0.097280 0.260900 18.644295 6.829982 3.978868 36.324372 -1.137006 -9.277571 51.584190 36.298958 11.531468 2.047990 -1.814471 -0.238110 0.253590 -0.116390 -0.202090 
0.286010 17.302680 -2.223810 -6.215657 -27.984894 10.535705 -16.171790 11.574728 6.139317 28.174738 -3.087877 -28.408916 -44.079144 16.232559 14.321105 0.691681 9.920812 1.104775 0.568840 0.243540 0.432440 17.765644 -8.143048 1.939923 -14.212734 3.537680 -27.864571 9.566245 -5.342192 16.438218 -0.018812 -2.856924 3.409177 0.237420 0.323720 0.194570 -1.752566 -4.902374 -8.358694 -2.270154 -3.766403 10.352922 7.323656 -4.319656 6.161253 -2.163996 -9.082011 -7.847775 -22.570250 18.147986 33.021605 -0.200910 10.741240 -6.469740 -13.841822 -0.307447 1.496776 -54.100805 -3.934310 -2.938269 -40.490737 -1.680334 -2.678124 -3.800681 3.193701 0.477110 0.188790 -0.080540 0.257810 19.095806 7.109731 3.711594 36.300438 0.014150 -8.897774 50.712961 34.552435 10.654052 2.053720 -1.779997 -0.236580 0.260640 -0.117000 -0.210810 
0.317540 17.323830 -2.231880 -5.947135 -27.543001 10.167601 -16.160668 11.687728 6.085979 27.575546 -3.146402 -28.468937 -43.299090 16.492678 15.261561 0.679165 9.890365 1.098082 0.590420 0.273640 0.455340 17.751973 -8.224988 1.908026 -13.840938 3.435242 -27.311302 8.635923 -4.990866 15.850735 -0.020326 -2.701169 3.468180 0.242440 0.288300 0.189540 -1.699597 -4.933781 -8.347957 -2.717544 -3.587435 10.949137 7.576647 -4.166424 6.111553 -2.230001 -9.244621 -7.844860 -23.455650 18.118854 34.153632 -0.674410 10.514480 -7.329130 -14.002856 -0.246281 1.545397 -53.736049 -3.552131 -3.328619 -42.001655 -2.114543 -2.679544 -3.767789 3.191750 0.495580 0.162540 -0.051220 0.252580 19.400049 7.379129 3.488589 36.483727 1.090014 -8.608405 49.229588 32.878099 9.677834 2.073380 -1.737478 -0.221190 0.263300 -0.128920 -0.214300 
0.349020 17.341260 -2.241210 -5.782338 -27.042260 9.991382 -16.144686 11.745788 6.057310 27.210393 -3.179068 -28.634714 -42.810937 16.784709 16.112384 0.683509 9.892655 1.085853 0.617070 0.300400 0.478460 17.751499 -8.285583 1.892489 -13.547020 3.364422 -26.828623 8.079069 -4.727005 15.212333 -0.029468 -2.583452 3.508748 0.247710 0.250500 0.187810 -1.693071 -4.914597 -8.348845 -2.835617 -3.420769 11.444521 7.643720 -3.998697 6.164910 -2.272107 -9.463266 -7.985468 -24.501799 18.089775 35.148723 -0.911920 10.107160 -7.896800 -13.866111 -0.191627 1.701505 -53.485039 -3.009705 -3.926331 -43.680909 -3.242289 -2.468171 -3.720603 3.205638 0.516220 0.130540 -0.020870 0.256280 19.339406 7.658674 3.411500 36.993343 1.810085 -8.521300 47.756356 31.533292 8.811530 2.095662 -1.710038 -0.205560 0.257740 -0.148860 -0.216060 
0.383690 17.358440 -2.260060 -5.587584 -26.565954 9.778135 -16.119381 11.842623 5.992568 26.510108 -3.329197 -29.007048 -41.668869 17.180205 17.602288 0.657071 9.881200 1.068950 0.645210 0.326320 0.510190 17.751699 -8.355724 1.908668 -13.311357 3.333766 -26.681157 7.569636 -4.547279 14.961182 -0.047638 -2.481437 3.536217 0.253250 0.203350 0.179470 -1.691257 -4.915871 -8.355902 -3.012648 -3.160369 12.317616 7.701985 -3.721553 6.202523 -2.286630 -9.686926 -8.214107 -25.694329 18.301742 36.210510 -1.152850 9.858160 -9.040970 -13.545795 -0.096901 1.903575 -53.115633 -2.324593 -4.724396 -45.480768 -5.080445 -2.026159 -3.663715 3.204756 0.558200 0.086210 0.017680 0.252240 19.039120 7.920488 3.370455 37.794534 2.459885 -8.561295 46.444911 30.246935 8.019842 2.115839 -1.667009 -0.198470 0.262040 -0.163770 -0.227470 
0.417680 17.372300 -2.284990 -5.235237 -26.185260 9.688611 -16.100760 11.943981 5.906666 25.584161 -3.483991 -29.584696 -40.222780 17.661234 19.412760 0.626087 9.884025 1.064865 0.660920 0.340320 0.536710 17.747418 -8.418707 1.941019 -13.107107 3.339559 -26.879743 6.913111 -4.322001 14.734018 -0.051671 -2.362271 3.582219 0.260160 0.179610 0.154560 -1.674671 -4.914342 -8.346472 -3.463899 -2.708054 13.054874 7.976098 -3.294644 6.274054 -2.380780 -9.885944 -8.371041 -26.718045 18.391626 37.013031 -1.401580 9.538840 -9.940850 -13.248005 0.064057 2.105145 -52.707048 -1.583447 -5.504997 -47.477655 -7.177822 -1.403838 -3.618245 3.181437 0.592870 0.054030 0.040430 0.253920 18.913926 8.172742 3.297690 38.475549 3.130950 -8.565185 44.951013 29.231226 7.332962 2.131927 -1.616072 -0.211290 0.292180 -0.178000 -0.237390 
